<?xml version="1.0" standalone="no"?>
<!DOCTYPE svg PUBLIC "-//W3C//DTD SVG 20010904//EN"
 "http://www.w3.org/TR/2001/REC-SVG-20010904/DTD/svg10.dtd">
<svg version="1.0" xmlns="http://www.w3.org/2000/svg"
 width="1024.000000pt" height="1024.000000pt" viewBox="0 0 1024.000000 1024.000000"
 preserveAspectRatio="xMidYMid meet">
<metadata>
Created by potrace 1.14, written by Peter Selinger 2001-2017
</metadata>
<g transform="translate(0.000000,1024.000000) scale(0.100000,-0.100000)"
fill="#000000" stroke="none">
<path d="M5250 9339 c-47 -4 -103 -12 -125 -18 -22 -5 -53 -13 -70 -16 -26 -6
-28 -8 -12 -17 10 -5 35 -7 55 -4 35 6 36 5 18 -9 -11 -8 -27 -15 -37 -15 -9
0 -27 -9 -40 -20 -23 -18 -23 -19 -4 -20 l20 -1 -20 -9 c-11 -5 -35 -9 -53 -9
-22 -1 -42 -11 -64 -31 -45 -43 -57 -37 -14 7 39 41 40 55 1 29 -40 -27 -28
-4 14 27 22 15 48 27 59 27 11 0 25 7 32 15 17 21 -5 19 -46 -3 -119 -65 -130
-69 -164 -65 -19 2 -56 5 -83 7 -28 1 -52 9 -60 18 -9 11 -48 18 -152 26 -164
14 -226 7 -400 -43 -33 -9 -80 -22 -105 -27 -25 -6 -54 -16 -65 -23 -11 -8
-40 -19 -64 -25 -23 -6 -71 -27 -105 -46 -33 -18 -115 -60 -181 -93 -203 -99
-373 -242 -549 -461 -107 -133 -152 -198 -143 -207 4 -3 17 7 29 23 13 16 38
45 56 64 25 26 30 29 22 11 -7 -13 -36 -49 -65 -81 -48 -52 -105 -146 -105
-172 0 -6 -11 -34 -24 -62 -28 -60 -80 -262 -70 -277 6 -11 -13 -101 -48 -221
-16 -54 -17 -74 -9 -105 6 -21 11 -66 11 -100 0 -53 3 -63 18 -64 15 0 15 -1
-2 -8 -13 -5 -16 -10 -8 -15 7 -4 11 -31 10 -69 -2 -80 8 -265 16 -297 4 -14
11 -48 16 -76 5 -28 13 -69 18 -90 5 -22 10 -48 11 -59 3 -61 13 -93 29 -88
12 5 14 1 9 -19 -4 -14 0 -47 8 -73 8 -27 12 -52 9 -57 -3 -5 2 -41 12 -81 18
-74 48 -127 71 -127 7 0 13 -6 13 -14 0 -8 15 -32 33 -54 75 -92 77 -95 77
-145 0 -33 -7 -58 -20 -76 -20 -29 -20 -39 6 -211 3 -19 0 -69 -6 -110 -6 -41
-12 -88 -12 -103 -1 -33 29 -59 57 -51 11 3 28 6 38 7 17 1 18 14 13 247 -7
270 -4 306 26 316 19 6 19 7 1 26 -17 19 -17 20 5 37 l23 17 -20 19 c-13 11
-21 31 -21 52 0 18 -5 33 -11 33 -6 0 -8 8 -4 19 3 11 1 22 -4 25 -15 10 -11
82 15 230 7 40 54 146 130 294 35 67 64 127 64 132 0 6 -7 10 -15 10 -19 0
-19 2 6 44 18 31 19 36 5 36 -13 0 -14 4 -7 18 11 21 21 87 25 167 2 33 9 76
17 95 18 48 64 120 89 137 11 8 20 21 20 29 0 8 5 14 10 14 6 0 10 -9 10 -20
0 -11 5 -20 10 -20 6 0 10 9 10 21 0 14 5 19 14 16 10 -4 19 10 32 48 17 54
34 65 34 21 0 -13 5 -37 11 -54 9 -26 18 -33 52 -40 23 -5 47 -5 52 -2 6 4 26
10 45 12 19 3 42 8 52 12 12 6 18 0 23 -23 10 -45 21 -30 28 34 6 56 27 90 56
90 9 0 21 11 27 24 11 22 13 22 22 5 5 -11 12 -32 16 -48 7 -30 17 -29 21 1 3
32 17 73 25 73 4 0 1 -26 -6 -57 -15 -65 -19 -199 -5 -207 9 -6 25 43 37 109
10 60 23 78 24 33 0 -43 14 -52 17 -12 0 15 5 29 11 33 5 3 14 22 21 41 6 19
26 51 44 71 56 64 65 77 60 83 -4 3 0 6 8 6 8 1 27 21 42 45 16 25 33 45 38
45 6 0 -2 -16 -18 -36 -15 -20 -28 -42 -29 -50 -1 -7 -11 -26 -22 -41 -10 -15
-34 -57 -52 -93 -44 -84 -99 -162 -111 -154 -5 3 -9 -5 -9 -18 0 -20 6 -16 50
27 28 27 65 78 82 113 18 35 36 66 40 68 13 8 9 -5 -8 -32 -23 -34 -14 -38 20
-9 16 14 33 25 38 25 11 0 0 -49 -18 -77 -20 -33 -46 -112 -39 -123 3 -5 17
-6 32 -4 56 10 112 54 132 104 10 24 10 24 10 -7 1 -18 4 -33 9 -33 4 0 15 15
25 33 24 43 75 102 83 95 3 -3 -2 -20 -11 -38 -9 -18 -14 -34 -12 -37 6 -5 78
88 97 127 8 14 15 20 17 13 2 -6 -4 -24 -14 -40 -10 -15 -12 -24 -6 -20 7 5
29 40 48 79 35 69 91 158 101 158 2 0 -3 -14 -11 -31 -20 -37 -14 -49 8 -17
35 53 66 80 103 90 71 18 102 20 154 9 28 -6 57 -8 63 -4 30 18 48 13 54 -17
7 -38 23 -39 24 -2 0 15 4 36 8 47 8 17 11 14 26 -22 19 -46 29 -53 40 -25 6
15 8 14 17 -8 10 -24 11 -24 22 17 14 53 19 57 45 41 18 -11 23 -11 31 2 5 8
10 25 10 38 0 29 11 28 38 -3 12 -14 26 -25 31 -25 5 0 17 -22 26 -50 19 -56
30 -63 39 -24 7 25 8 26 26 9 20 -18 20 -17 20 28 0 26 5 47 10 47 6 0 10 -7
10 -14 0 -15 42 -66 54 -66 3 0 5 5 3 12 -1 7 3 13 8 14 41 7 52 17 47 40 -3
18 0 24 12 24 26 0 72 -27 94 -55 20 -26 21 -26 32 -6 15 29 27 26 45 -8 10
-21 21 -29 34 -26 24 5 41 -15 80 -92 42 -85 56 -91 47 -20 -3 32 -4 57 -1 57
3 0 16 -24 29 -52 23 -49 24 -51 25 -23 2 32 21 65 40 65 6 0 11 -6 11 -14 0
-8 5 -16 11 -18 6 -2 16 -28 23 -58 l13 -55 7 53 c9 72 26 63 51 -26 21 -76
42 -93 47 -39 2 17 7 31 13 31 10 -1 13 -7 39 -67 11 -26 22 -37 33 -35 12 2
23 -10 35 -34 10 -21 23 -38 28 -38 6 0 10 -7 10 -15 0 -8 4 -15 8 -15 5 0 27
-16 50 -36 23 -20 56 -37 74 -39 17 -3 37 -10 44 -17 28 -29 84 -152 86 -188
2 -22 6 -40 9 -40 3 0 14 -39 23 -87 27 -137 37 -160 98 -225 31 -33 62 -74
68 -92 6 -17 15 -38 19 -46 20 -38 42 -135 46 -207 3 -43 11 -107 17 -143 6
-37 9 -98 6 -138 l-4 -72 31 -1 c38 -2 37 -2 58 6 30 12 19 -14 -15 -35 -32
-19 -32 -20 -36 -114 -2 -67 1 -112 12 -150 9 -30 16 -89 16 -133 0 -105 -25
-311 -50 -403 -11 -41 -20 -90 -20 -109 l0 -35 30 29 c17 16 50 39 73 50 33
16 48 32 69 75 15 30 28 63 28 73 0 10 7 31 15 47 14 27 13 40 -7 142 -12 62
-26 119 -32 127 -6 8 -26 20 -43 28 -28 11 -33 18 -33 47 0 19 7 47 15 62 18
34 20 71 4 76 -6 2 -9 13 -7 23 5 20 5 20 13 0 10 -24 45 -65 57 -65 4 0 8 25
8 55 0 43 -3 55 -15 55 -18 0 -35 39 -35 81 0 40 61 102 118 118 45 13 48 31
6 31 -28 0 -28 2 -11 38 8 15 19 53 26 84 7 32 17 60 22 63 5 4 6 17 3 31 -4
13 -2 24 4 24 6 0 8 9 5 20 -3 11 -1 20 5 20 5 0 10 10 10 23 1 39 10 91 21
119 16 43 25 144 12 152 -17 11 -13 27 6 24 13 -2 17 5 19 30 1 18 -2 35 -6
37 -5 3 -5 19 0 35 5 18 5 32 -1 35 -11 8 -12 62 -1 69 10 6 8 52 -3 79 -5 13
-3 16 8 11 25 -9 31 16 9 39 -35 39 -35 60 -1 80 27 15 30 21 24 45 -4 15 -10
29 -14 32 -5 3 -11 15 -15 28 -6 16 -3 22 9 22 24 0 30 28 10 50 -11 12 -13
20 -6 20 14 0 5 45 -16 78 -19 31 -10 39 27 25 36 -13 36 -9 14 62 -8 28 -17
82 -18 120 -3 54 -10 84 -34 130 -16 33 -26 61 -21 63 7 3 2 23 -18 72 -3 8
-7 23 -8 33 -1 11 -8 23 -15 27 -7 4 -14 25 -14 47 -1 47 -60 162 -125 247
-54 69 -63 90 -50 103 18 18 -13 71 -71 122 -32 28 -63 51 -70 51 -6 0 -14 8
-18 19 -4 10 -29 37 -57 61 -79 67 -91 104 -17 49 23 -17 50 -29 59 -27 13 3
3 15 -41 48 -32 25 -89 72 -128 104 -38 33 -77 60 -86 61 -9 1 -35 7 -57 13
-22 6 -59 16 -83 22 -23 6 -59 21 -80 33 -40 24 -160 78 -234 107 -26 10 -55
25 -63 34 -9 9 -28 19 -43 22 -15 3 -105 30 -200 60 -95 30 -192 57 -215 60
-23 4 -46 10 -52 14 -13 10 -238 9 -345 -1z m-836 -108 c3 -5 -26 -12 -65 -15
-39 -4 -89 -15 -112 -25 -53 -22 -106 -36 -92 -23 15 13 123 51 175 61 61 12
88 13 94 2z m-489 -141 c-3 -5 -12 -10 -18 -10 -7 0 -6 4 3 10 19 12 23 12 15
0z m2210 -180 c11 -13 -8 -1 -42 25 -35 27 -63 50 -63 52 0 8 86 -55 105 -77z
m-2765 -64 c0 -2 -8 -10 -17 -17 -16 -13 -17 -12 -4 4 13 16 21 21 21 13z
m-70 -183 c-86 -88 -118 -116 -174 -158 l-40 -30 22 31 c13 16 45 48 73 70 28
21 55 47 60 57 9 16 118 107 129 107 2 0 -29 -34 -70 -77z m3136 -324 c3 -6
-5 -3 -20 6 -14 10 -26 19 -26 22 0 7 39 -17 46 -28z m-3302 -148 c-32 -49
-41 -53 -18 -8 20 39 35 59 41 53 3 -2 -8 -23 -23 -45z m1290 -117 c7 -19 -13
-41 -48 -50 -24 -6 -31 -19 -27 -51 1 -7 -3 -13 -9 -13 -5 0 -10 5 -10 11 0 5
-5 7 -11 3 -8 -4 -7 -9 2 -15 9 -6 10 -12 4 -16 -6 -5 -37 -39 -70 -78 -117
-137 -117 -136 -88 -63 26 69 144 218 208 265 37 26 41 27 49 7z m-1429 -47
c-8 -21 -17 -37 -19 -37 -6 0 10 55 19 70 15 24 15 1 0 -33z m3585 -2 c0 -5
-5 -3 -10 5 -5 8 -10 20 -10 25 0 6 5 3 10 -5 5 -8 10 -19 10 -25z m39 -95 c0
-8 -8 5 -19 29 -11 24 -20 46 -20 50 1 12 39 -64 39 -79z m-1172 28 c-3 -8 -6
-5 -6 6 -1 11 2 17 5 13 3 -3 4 -12 1 -19z m-921 -145 c-28 -72 -55 -123 -55
-103 1 27 62 160 73 160 3 0 -6 -26 -18 -57z m55 -9 c-12 -21 -21 -33 -21 -25
0 15 32 72 38 67 2 -2 -6 -21 -17 -42z m-263 -39 c-15 -14 -31 -25 -35 -25 -5
0 -15 -9 -23 -20 -21 -29 -34 -25 -14 5 16 24 71 65 89 65 5 0 -2 -11 -17 -25z
m-1261 -1585 c12 0 38 -28 31 -35 -6 -7 -67 38 -73 54 -4 11 -1 10 13 -2 10
-9 23 -17 29 -17z"/>
<path d="M6945 8690 c3 -5 8 -10 11 -10 2 0 4 5 4 10 0 6 -5 10 -11 10 -5 0
-7 -4 -4 -10z"/>
<path d="M6260 6805 c11 -13 6 -14 -35 -8 -35 4 -49 2 -56 -8 -6 -10 -9 -11
-9 -1 0 10 -19 11 -82 7 -186 -13 -295 -34 -363 -69 -16 -9 -38 -16 -48 -16
-9 0 -56 -19 -103 -42 -73 -36 -91 -51 -125 -98 -43 -61 -50 -101 -20 -126 11
-10 16 -24 14 -35 -3 -11 0 -19 6 -19 7 0 9 -4 6 -10 -4 -6 6 -7 27 -4 l33 7
-61 -64 c-34 -35 -80 -90 -102 -121 -23 -31 -50 -59 -61 -63 -18 -5 -18 -9 -5
-58 7 -29 12 -90 11 -137 -1 -69 4 -99 25 -162 36 -103 95 -223 126 -256 6 -7
12 -17 12 -22 0 -20 169 -177 214 -199 83 -41 234 -57 406 -43 228 17 294 45
380 160 61 79 146 249 165 327 8 33 16 113 18 178 2 64 7 121 13 127 5 5 36
10 69 12 51 3 60 6 63 23 1 11 -2 27 -8 35 -9 13 -12 13 -25 -4 -13 -17 -15
-18 -60 0 -41 15 -50 25 -73 72 -43 91 -164 196 -272 235 -57 21 -282 37 -453
32 -71 -2 -126 -1 -122 3 3 3 29 14 58 23 29 9 84 29 122 45 59 23 87 27 178
29 92 2 107 0 102 -12 -4 -11 -1 -13 11 -9 9 3 27 9 41 12 23 6 24 5 12 -14
-7 -12 -9 -25 -5 -29 5 -4 11 -2 13 5 6 15 103 17 103 2 0 -5 -7 -10 -15 -10
-25 0 -17 -17 11 -24 17 -5 24 -12 20 -21 -3 -9 0 -15 8 -15 8 0 16 -7 20 -15
10 -27 50 -18 70 16 12 21 24 29 39 27 23 -3 36 -28 15 -28 -7 0 -23 -9 -36
-18 -20 -16 -21 -20 -9 -30 11 -10 17 -9 27 3 19 22 32 18 19 -6 -11 -21 -10
-21 11 -6 18 12 28 13 43 6 20 -11 18 -3 -6 29 -6 7 -11 25 -12 40 0 15 -4 38
-8 52 l-8 25 23 -27 c13 -16 27 -28 31 -28 7 0 -21 78 -35 96 -4 6 -6 18 -3
26 4 9 -3 19 -17 25 -13 6 -61 44 -108 83 -97 82 -133 103 -160 95 -10 -3 -21
-1 -25 5 -3 5 -15 10 -27 10 -17 0 -18 -2 -8 -15z m160 -315 c0 -5 -5 -10 -11
-10 -5 0 -7 5 -4 10 3 6 8 10 11 10 2 0 4 -4 4 -10z m55 -30 c-20 -22 -35 -26
-35 -10 0 6 10 15 23 20 32 13 32 12 12 -10z m-728 -6 c-3 -3 -12 -4 -19 -1
-8 3 -5 6 6 6 11 1 17 -2 13 -5z m551 -48 c111 -28 245 -134 293 -233 22 -44
24 -60 23 -198 0 -82 -6 -175 -12 -205 -17 -78 -126 -289 -188 -363 -60 -73
-113 -101 -234 -123 -153 -27 -415 -13 -499 28 -98 47 -254 240 -314 388 -41
102 -49 146 -50 275 0 106 2 126 24 170 23 48 165 202 176 191 3 -3 17 3 30
14 13 10 31 16 39 13 9 -3 14 0 12 7 -12 51 533 78 700 36z"/>
<path d="M5467 6268 c-20 -23 -37 -46 -37 -51 0 -4 -5 -5 -11 -1 -7 4 -10 1
-7 -7 2 -7 -4 -22 -14 -33 -10 -11 -18 -27 -18 -36 0 -27 44 -13 89 29 32 29
38 39 30 54 -7 11 -7 17 1 17 5 0 10 6 10 14 0 8 6 17 13 20 6 4 2 4 -10 2
-27 -5 -28 -3 -7 18 8 9 11 16 6 16 -5 0 -25 -19 -45 -42z"/>
<path d="M5803 6275 c-29 -8 -74 -25 -100 -39 -76 -38 -193 -171 -193 -218 0
-10 20 -14 83 -14 45 0 96 -3 112 -7 28 -7 29 -7 5 4 -47 21 -54 25 -64 41
-14 22 31 88 78 116 l36 21 0 -47 c0 -55 33 -120 70 -139 14 -7 45 -13 69 -13
83 0 141 60 141 145 0 19 5 35 10 35 6 0 10 -3 10 -7 0 -5 20 -21 45 -38 25
-16 48 -40 51 -53 6 -20 12 -23 43 -20 30 2 36 0 39 -18 2 -14 -5 -24 -24 -33
-36 -16 -25 -23 22 -13 35 7 39 11 37 36 -2 26 -1 27 16 12 9 -9 33 -18 52
-22 19 -3 44 -11 57 -17 31 -15 56 1 60 39 2 24 -7 40 -48 82 -27 28 -58 52
-68 52 -9 0 -42 15 -72 33 -141 83 -162 90 -293 94 -86 2 -137 -1 -174 -12z
m225 -19 c35 -8 66 -17 70 -21 4 -4 -6 -5 -23 -1 -16 3 -54 10 -84 16 -55 10
-79 20 -45 20 10 -1 47 -7 82 -14z m-168 -107 c0 -5 -4 -9 -10 -9 -5 0 -10 7
-10 16 0 8 5 12 10 9 6 -3 10 -10 10 -16z m90 2 c0 -17 -18 -21 -24 -6 -3 9 0
15 9 15 8 0 15 -4 15 -9z"/>
<path d="M6105 5955 c-26 -8 -33 -13 -19 -14 12 -1 37 6 55 14 42 18 18 18
-36 0z"/>
<path d="M5340 5889 c0 -31 24 -99 35 -99 13 0 45 42 45 59 0 6 -18 19 -40 30
-22 10 -40 15 -40 10z"/>
<path d="M5695 5856 c11 -8 23 -12 28 -9 13 8 -3 23 -26 23 -20 0 -20 0 -2
-14z"/>
<path d="M3830 6772 c-30 -15 -86 -50 -125 -78 -38 -27 -86 -60 -106 -72 -37
-23 -89 -82 -89 -101 0 -16 11 -13 27 7 11 14 11 10 -1 -20 -16 -41 -8 -55 23
-38 18 9 19 8 10 -22 -12 -44 -12 -48 5 -42 8 3 24 -4 35 -15 25 -25 25 -27 7
-34 -10 -4 -13 -1 -9 9 10 26 -23 15 -45 -16 -25 -34 -29 -48 -7 -30 8 6 23 9
34 5 19 -6 17 -10 -24 -61 -25 -31 -50 -73 -56 -97 -10 -40 -14 -44 -57 -56
-40 -10 -48 -10 -58 3 -23 32 -53 11 -34 -24 8 -15 21 -20 53 -20 86 0 83 4
90 -138 8 -181 50 -303 164 -474 81 -124 143 -158 342 -192 46 -8 88 -20 92
-28 5 -7 9 -8 9 -2 0 7 51 15 134 22 145 12 196 27 266 78 129 93 273 307 315
469 8 32 15 98 15 145 0 106 17 159 56 175 25 11 27 14 11 20 -10 4 -31 5 -47
1 -27 -5 -33 -1 -72 57 -65 97 -146 177 -205 203 -88 40 -220 55 -477 54 -127
0 -238 -1 -246 -2 -24 -2 -80 14 -80 23 0 5 3 9 8 9 4 1 34 3 67 7 33 3 86 6
118 5 56 -1 57 -1 51 24 -6 23 -4 25 22 19 16 -4 45 -14 64 -23 19 -8 51 -16
72 -18 20 -1 70 -9 110 -18 40 -8 100 -18 133 -21 74 -8 154 -34 218 -69 52
-30 55 -29 104 23 39 41 33 75 -33 176 -18 27 -93 62 -155 71 -24 3 -57 10
-74 15 -16 4 -75 15 -130 23 -56 8 -121 21 -145 30 -65 21 -127 30 -192 27
-36 -1 -58 2 -58 8 0 6 -16 11 -36 11 -21 0 -33 4 -29 10 10 15 -5 11 -65 -18z
m-16 -318 c11 -4 -2 -15 -43 -34 -47 -23 -68 -27 -102 -23 -37 5 -40 7 -20 15
13 4 28 5 33 1 6 -3 17 2 24 12 7 10 30 21 51 25 21 4 39 8 40 9 1 0 9 -2 17
-5z m466 -24 c151 -12 249 -39 314 -84 74 -52 108 -85 101 -96 -3 -5 0 -7 8
-5 15 6 69 -64 92 -119 8 -20 15 -63 15 -97 0 -52 -3 -62 -20 -66 -11 -3 -20
-13 -20 -22 0 -9 -9 -34 -21 -55 -25 -47 -22 -88 9 -101 12 -5 22 -13 22 -18
0 -20 -73 -164 -114 -225 -60 -91 -158 -187 -220 -216 -104 -49 -308 -57 -515
-20 -97 18 -143 39 -187 86 -69 72 -165 245 -202 363 -20 63 -21 353 -1 412
13 39 113 153 134 153 7 0 15 6 18 14 6 14 115 71 158 81 85 21 279 28 429 15z
m-603 -56 c-3 -3 -12 -4 -19 -1 -8 3 -5 6 6 6 11 1 17 -2 13 -5z"/>
<path d="M4135 6274 c-164 -24 -259 -58 -380 -137 -52 -34 -116 -75 -142 -92
-52 -32 -65 -62 -38 -89 22 -21 63 -20 117 2 67 29 98 35 98 18 0 -20 21 -25
77 -21 30 2 50 0 55 -8 4 -7 8 4 8 26 0 40 2 42 30 27 15 -8 19 -5 24 14 7 29
53 86 69 86 6 0 18 6 26 14 33 30 42 23 44 -31 5 -122 128 -187 231 -123 41
25 64 68 75 138 l6 44 41 -30 c26 -19 47 -46 58 -72 16 -40 16 -44 0 -61 -24
-27 -14 -31 41 -19 27 6 61 8 75 5 45 -10 44 18 -1 111 -23 46 -45 84 -50 84
-4 0 -11 9 -14 20 -9 29 -100 73 -170 82 -79 10 -242 17 -280 12z m215 -29
c33 -13 28 -14 -75 -14 -135 -1 -190 -15 -328 -81 -120 -58 -162 -63 -71 -8
69 42 113 62 209 94 81 27 208 31 265 9z m-15 -125 c0 -7 -6 -15 -12 -17 -8
-3 -13 4 -13 17 0 13 5 20 13 18 6 -3 12 -11 12 -18z m-105 0 c0 -5 -4 -10
-10 -10 -5 0 -10 5 -10 10 0 6 5 10 10 10 6 0 10 -4 10 -10z"/>
<path d="M7244 6136 c-40 -40 -41 -54 -19 -196 8 -52 15 -98 15 -102 0 -5 5
-8 10 -8 7 0 10 41 8 115 -2 116 3 138 25 116 19 -19 23 -233 4 -284 -9 -23
-23 -85 -32 -137 -45 -256 -64 -306 -157 -391 -44 -40 -60 -60 -55 -72 20 -51
98 27 156 154 38 85 96 268 111 349 6 36 16 71 22 77 13 16 34 289 25 325 -8
30 -53 88 -69 88 -5 0 -25 -15 -44 -34z"/>
<path d="M4970 6150 c-10 -7 20 -10 93 -10 70 0 106 4 102 10 -8 13 -175 13
-195 0z"/>
<path d="M2787 6113 c-10 -9 -8 -73 4 -155 15 -107 82 -378 92 -378 10 0 8 23
-13 263 l-12 137 26 21 c34 27 33 44 -8 85 -32 32 -73 44 -89 27z"/>
<path d="M7152 6077 c-31 -33 -27 -42 8 -17 17 12 30 26 30 31 0 16 -16 10
-38 -14z"/>
<path d="M4907 5793 c-4 -3 -7 -11 -7 -17 0 -6 5 -5 12 2 6 6 9 14 7 17 -3 3
-9 2 -12 -2z"/>
<path d="M4880 5743 c0 -9 -6 -24 -13 -32 -19 -23 -38 -71 -29 -71 9 0 46 64
57 98 4 13 2 22 -4 22 -6 0 -11 -8 -11 -17z"/>
<path d="M5265 5709 c-3 -8 1 -33 9 -56 8 -23 12 -44 9 -47 -4 -3 -2 -6 3 -6
5 0 11 -11 12 -24 2 -31 39 -116 50 -116 11 0 57 -111 54 -128 -5 -23 27 -80
48 -87 25 -8 107 -99 131 -147 10 -20 19 -49 19 -64 0 -24 -28 -83 -40 -85
-28 -3 -137 0 -182 6 -56 8 -60 6 -135 -37 -101 -57 -151 -58 -263 -4 -41 20
-86 36 -101 36 -34 0 -87 -18 -121 -42 -44 -30 -91 -24 -127 17 -26 30 -31 44
-31 86 0 51 17 136 31 154 7 10 39 165 39 193 0 12 -6 10 -25 -8 -28 -26 -43
-84 -27 -103 8 -9 2 -32 -19 -82 -17 -39 -33 -94 -36 -122 -5 -46 -2 -58 22
-95 44 -68 66 -88 124 -114 63 -28 152 -32 208 -9 42 18 79 19 88 4 9 -13 388
-4 444 11 59 16 115 62 155 129 21 34 43 61 51 61 8 0 12 9 11 24 -4 28 -93
176 -107 176 -5 0 -9 6 -9 14 0 7 -7 19 -15 26 -8 7 -13 16 -10 20 3 4 -1 10
-9 13 -8 3 -26 32 -41 64 -15 32 -51 97 -81 144 -30 47 -54 89 -54 92 0 3 -16
32 -35 63 -23 39 -36 53 -40 43z"/>
<path d="M3107 5375 c-24 -18 -18 -49 11 -53 17 -3 22 1 22 20 0 37 -12 49
-33 33z"/>
<path d="M2996 5252 c10 -18 20 -28 23 -21 2 6 -7 21 -19 33 l-23 21 19 -33z"/>
<path d="M6846 4913 c-3 -4 -6 -21 -6 -39 0 -28 5 -34 45 -53 50 -23 105 -27
123 -9 18 18 15 28 -8 28 -25 0 -73 23 -116 56 -17 13 -34 20 -38 17z"/>
<path d="M3245 4849 c-30 -19 -20 -24 23 -13 12 4 22 13 22 20 0 18 -8 17 -45
-7z"/>
<path d="M5383 4448 c-5 -7 -8 -23 -7 -35 0 -13 -4 -27 -11 -33 -13 -11 -85
-2 -85 12 0 5 5 6 12 2 7 -4 8 -3 4 4 -15 24 -106 8 -106 -19 0 -6 -6 -17 -14
-25 -8 -7 -16 -19 -18 -26 -3 -9 -10 -8 -23 5 -9 10 -30 21 -46 24 -16 3 -29
9 -29 13 0 4 -18 4 -41 -1 -22 -5 -45 -7 -50 -3 -5 3 -15 2 -22 -4 -30 -22
-48 -22 -59 3 -6 14 -15 25 -20 25 -5 0 -16 7 -24 15 -17 17 -45 13 -111 -15
-23 -10 -75 -26 -114 -36 -68 -16 -78 -16 -143 -2 -39 9 -81 19 -93 23 -19 6
-23 4 -23 -13 0 -26 13 -36 90 -65 91 -34 153 -38 716 -52 95 -2 176 -5 180
-6 5 -2 48 1 96 5 109 10 158 3 158 -24 0 -11 -4 -20 -10 -20 -5 0 -10 -9 -10
-20 0 -11 3 -20 6 -20 13 0 51 25 83 57 40 38 122 88 164 99 39 9 56 47 32 70
-14 15 -22 16 -49 6 -50 -18 -154 -14 -216 9 -71 25 -182 59 -196 59 -6 0 -16
-6 -21 -12z"/>
<path d="M4865 4410 c3 -5 8 -10 11 -10 2 0 4 5 4 10 0 6 -5 10 -11 10 -5 0
-7 -4 -4 -10z"/>
<path d="M5332 4413 c-12 -2 -20 -8 -17 -13 6 -10 45 -1 45 11 0 5 -1 8 -2 8
-2 -1 -13 -4 -26 -6z"/>
<path d="M6440 4095 c0 -5 -20 -10 -45 -11 -33 -1 -50 -7 -64 -22 -10 -12 -21
-19 -24 -15 -4 3 -9 -2 -13 -11 -4 -10 -17 -22 -30 -27 -13 -4 -24 -15 -24
-23 0 -21 -80 -136 -95 -136 -7 0 -16 -12 -19 -26 -4 -14 -24 -44 -45 -67 -20
-23 -63 -75 -94 -115 -85 -110 -303 -303 -321 -285 -3 4 -6 2 -6 -4 0 -6 -10
-13 -22 -16 -13 -3 -57 -17 -98 -32 -41 -14 -91 -28 -110 -30 -19 -2 -53 -9
-75 -14 -22 -6 -114 -16 -204 -22 -129 -9 -182 -9 -250 1 -81 11 -210 49 -235
68 -6 5 -31 17 -56 26 -120 47 -331 211 -432 336 -20 25 -58 63 -84 85 -80 67
-155 145 -149 155 4 6 0 10 -7 10 -13 0 -29 24 -44 63 -3 9 -10 17 -15 17 -5
0 -9 7 -9 16 0 11 -5 14 -16 10 -9 -4 -23 -1 -31 6 -13 10 -14 6 -12 -27 3
-24 -1 -40 -9 -43 -6 -2 -12 -11 -12 -19 0 -30 91 -164 168 -248 20 -22 57
-67 82 -100 59 -78 226 -243 321 -316 42 -32 120 -81 175 -108 115 -58 269
-121 293 -121 9 0 21 -4 27 -9 15 -14 113 -39 205 -52 95 -13 255 0 314 26 17
8 56 23 88 35 31 12 57 26 57 31 0 4 16 11 35 15 19 3 40 13 46 21 7 8 29 21
48 29 80 33 91 39 91 52 0 8 6 12 13 9 6 -2 30 8 52 23 22 15 48 29 58 33 9 4
17 12 17 20 0 7 23 35 50 62 28 27 50 55 50 63 0 15 78 94 130 132 19 14 77
66 129 115 83 80 99 102 146 195 61 122 80 180 63 191 -9 6 -9 11 0 21 7 9 8
19 2 28 -6 8 -10 11 -10 5z"/>
<path d="M5200 3980 l-25 -7 27 -7 c32 -9 60 -5 65 10 4 13 -28 14 -67 4z"/>
<path d="M4790 3968 c0 -15 53 -59 89 -74 46 -19 254 -44 321 -38 56 4 120 16
198 36 29 7 41 15 38 24 -3 7 0 16 5 20 31 19 -20 23 -157 13 -232 -17 -249
-17 -240 6 3 8 1 15 -4 15 -6 0 -10 -7 -10 -15 0 -17 -16 -20 -25 -6 -3 5 -20
7 -38 5 -17 -3 -65 1 -104 9 -40 8 -73 10 -73 5z"/>
<path d="M6300 3131 c0 -6 5 -13 10 -16 6 -3 10 1 10 9 0 9 -4 16 -10 16 -5 0
-10 -4 -10 -9z"/>
<path d="M6317 3073 c-3 -5 0 -34 8 -64 l14 -54 -6 60 c-6 64 -8 71 -16 58z"/>
<path d="M3734 2989 c-9 -16 -66 -38 -154 -61 -96 -24 -170 -61 -195 -96 -11
-15 -29 -63 -40 -107 -15 -59 -25 -80 -37 -80 -9 0 -26 -12 -38 -27 -22 -28
-63 -38 -75 -18 -4 6 -11 8 -16 4 -5 -3 -23 -7 -39 -9 -48 -6 -180 -83 -180
-105 0 -12 -69 -123 -89 -144 -33 -32 -45 -8 -16 31 15 19 28 40 29 46 1 7 9
23 18 36 10 14 16 26 15 27 -5 5 -91 -27 -102 -37 -5 -5 -19 -9 -32 -9 -13 0
-31 -4 -41 -9 -9 -5 -33 -16 -52 -24 l-35 -16 30 -1 c75 -1 62 -34 -20 -49
-38 -7 -54 -6 -72 6 -37 24 -119 1 -172 -47 -23 -21 -41 -40 -41 -44 0 -15 59
-4 97 18 105 60 78 25 -39 -51 -45 -29 -45 -46 0 -41 33 3 38 1 34 -14 -3 -13
1 -18 14 -18 14 0 10 -5 -13 -20 -18 -11 -33 -27 -33 -35 0 -24 39 -10 203 71
81 41 150 74 153 74 24 0 -37 -40 -147 -96 -116 -60 -151 -86 -131 -98 14 -8
105 14 160 39 62 29 69 30 54 12 -6 -7 -34 -24 -62 -37 -33 -16 -50 -30 -50
-42 0 -21 14 -23 60 -7 26 9 34 9 40 -2 7 -11 24 -9 97 10 48 12 113 28 144
35 31 7 89 32 130 56 103 61 166 90 202 94 18 2 40 7 51 11 16 7 17 5 8 -12
-17 -31 -3 -35 37 -11 l36 22 -37 -46 c-21 -26 -38 -49 -38 -52 0 -13 26 -5
62 20 21 15 41 24 44 21 4 -3 -13 -29 -36 -57 -23 -28 -40 -54 -36 -57 3 -3
31 10 61 31 30 20 55 33 55 30 0 -4 -13 -22 -30 -40 -16 -19 -27 -40 -24 -47
3 -8 -2 -20 -11 -27 -8 -7 -15 -19 -15 -27 0 -10 13 -5 43 15 23 16 54 31 70
34 l27 5 -36 -44 c-37 -45 -39 -67 -4 -45 11 6 26 9 35 6 8 -4 21 -2 28 3 6 5
25 15 40 21 l29 12 -24 -31 c-41 -55 -42 -58 -35 -65 4 -4 34 12 67 35 57 40
80 39 43 -1 -12 -13 -14 -21 -6 -29 8 -8 21 -4 46 15 30 23 36 24 47 11 7 -8
20 -15 30 -15 19 0 69 35 60 42 -179 144 -256 222 -313 314 -67 107 -101 206
-114 321 l-5 53 98 103 c128 134 150 159 144 163 -3 2 2 9 11 16 25 21 61 86
50 92 -5 4 -13 1 -17 -5z m-155 -902 c-2 -2 -22 -16 -44 -31 l-40 -28 39 36
c22 20 42 34 44 31 3 -3 3 -6 1 -8z m51 -40 c0 -2 -12 -14 -27 -28 l-28 -24
24 28 c23 25 31 32 31 24z m100 -52 c0 -2 -10 -10 -22 -16 -21 -11 -22 -11 -9
4 13 16 31 23 31 12z"/>
<path d="M6507 2884 c-7 -7 69 -78 171 -162 89 -72 107 -107 92 -176 -23 -96
-82 -188 -231 -357 -154 -174 -217 -228 -390 -327 -214 -123 -432 -186 -733
-212 -146 -13 -245 -42 -225 -66 9 -11 6 -18 -12 -34 -21 -17 -22 -21 -9 -30
13 -9 11 -14 -13 -33 -17 -14 -25 -29 -22 -38 3 -9 -3 -23 -15 -34 -29 -27
-25 -38 12 -31 l32 6 -32 -33 c-43 -44 -30 -53 27 -21 l46 27 -49 -51 c-28
-29 -46 -55 -42 -59 4 -4 29 5 56 20 81 46 92 34 25 -27 -68 -61 -68 -82 -1
-42 57 34 81 33 38 0 -21 -17 -31 -32 -27 -42 3 -8 -4 -25 -15 -37 -33 -35
-10 -37 43 -4 26 16 53 29 60 29 7 0 22 7 33 15 10 8 27 15 37 15 11 0 -7 -19
-45 -48 -68 -51 -94 -96 -41 -69 15 7 35 12 45 10 9 -2 19 1 23 6 3 6 13 11
21 11 8 0 33 12 55 26 60 37 56 25 -7 -24 -91 -70 -89 -105 3 -49 61 38 78 40
48 7 -30 -33 -5 -45 39 -19 27 15 40 18 49 10 10 -8 23 -4 52 16 31 21 41 24
57 14 16 -10 46 5 211 103 106 63 203 117 217 121 24 6 23 4 -7 -23 -41 -35
-41 -42 -3 -42 34 0 39 -14 10 -30 -11 -6 -20 -18 -20 -26 0 -23 42 -11 99 29
l46 31 -37 -43 c-20 -24 -46 -50 -57 -58 -33 -23 -26 -36 15 -28 23 4 34 3 30
-4 -4 -5 1 -14 10 -19 16 -9 15 -11 -4 -21 -26 -14 -29 -41 -5 -41 9 0 74 38
144 85 70 47 131 85 135 85 17 0 -28 -37 -123 -102 -94 -64 -125 -98 -89 -98
24 0 93 28 136 55 59 37 59 26 0 -18 -69 -52 -62 -92 9 -53 18 10 30 11 41 4
17 -11 32 -6 135 42 22 10 53 21 69 25 16 3 45 17 65 31 l36 24 16 -21 c16
-21 16 -21 105 36 106 69 459 324 562 408 77 63 162 161 162 188 0 8 12 26 26
40 17 15 24 31 21 46 -3 15 5 28 25 43 52 38 29 75 -26 41 -54 -34 -51 -25 13
39 34 33 61 64 61 70 0 19 -35 10 -93 -26 -84 -52 -95 -35 -12 18 39 25 81 58
94 72 l24 26 -26 0 c-14 0 -29 -4 -32 -10 -11 -18 -26 -10 -20 10 4 13 2 20
-6 20 -7 0 5 18 26 40 44 45 38 49 -26 20 -71 -32 -98 -21 -36 15 52 30 139
96 134 102 -3 2 -23 -5 -46 -16 -47 -25 -51 -25 -51 -8 0 12 19 25 110 79 67
40 11 29 -70 -13 -68 -36 -84 -40 -103 -31 -56 28 -102 42 -120 36 -17 -5 -19
-3 -14 15 7 30 -36 48 -73 31 -24 -11 -24 -11 -8 7 16 18 16 19 -2 31 -11 7
-27 12 -37 12 -9 0 -14 3 -10 6 9 10 -65 79 -123 115 -46 28 -63 33 -109 32
-30 -1 -59 -7 -64 -12 -14 -14 -37 -14 -37 -1 0 6 -19 30 -42 54 -45 45 -49
50 -87 106 -53 78 -81 98 -175 129 -109 35 -141 43 -149 35z m893 -1329 c-7
-8 -51 -43 -99 -78 -323 -237 -467 -339 -503 -357 -22 -11 -23 -11 -3 5 24 20
497 366 563 413 52 35 60 39 42 17z"/>
<path d="M3301 2684 c0 -11 3 -14 6 -6 3 7 2 16 -1 19 -3 4 -6 -2 -5 -13z"/>
<path d="M7403 2433 c9 -2 23 -2 30 0 6 3 -1 5 -18 5 -16 0 -22 -2 -12 -5z"/>
<path d="M7566 2384 c-18 -10 -25 -19 -18 -26 11 -11 82 15 82 31 0 16 -30 13
-64 -5z"/>
<path d="M7623 2364 c-38 -19 -46 -49 -10 -38 30 9 97 43 97 49 0 11 -57 3
-87 -11z"/>
<path d="M3882 1898 c-15 -15 -16 -38 -1 -38 7 0 0 -9 -15 -21 -27 -21 -34
-39 -15 -39 6 0 29 13 52 29 23 16 51 30 62 32 16 4 13 8 -18 27 -44 25 -49
26 -65 10z"/>
<path d="M3950 1809 c-28 -26 -40 -44 -32 -46 7 -3 19 1 27 7 8 7 21 10 29 7
7 -3 35 5 61 18 l48 23 -31 16 c-44 23 -52 21 -102 -25z"/>
<path d="M4058 1779 c-37 -30 -50 -59 -27 -59 6 0 34 16 61 36 49 37 75 40 45
6 -37 -41 -5 -58 40 -22 20 15 29 17 39 9 16 -13 52 -3 38 10 -10 10 -132 51
-148 51 -6 -1 -28 -14 -48 -31z"/>
<path d="M4369 1709 c-40 -40 -8 -48 49 -13 25 16 28 8 7 -20 -8 -10 -12 -23
-9 -28 3 -5 -2 -18 -12 -29 -27 -30 -9 -34 48 -10 29 13 60 25 68 28 8 3 -2
-12 -22 -33 -21 -22 -38 -43 -38 -47 0 -10 65 1 113 19 53 20 55 18 17 -21
-39 -40 -34 -55 13 -36 59 24 64 24 70 1 5 -21 6 -21 44 -2 21 10 46 17 55 15
9 -2 35 5 57 16 22 12 47 18 56 15 14 -6 169 55 161 63 -1 2 -72 10 -157 18
-155 14 -334 42 -443 69 -54 13 -59 13 -77 -5z m127 -55 c-30 -21 -45 -16 -16
6 14 10 27 16 30 13 3 -2 -4 -11 -14 -19z m189 -64 c-3 -5 -12 -10 -18 -10 -7
0 -6 4 3 10 19 12 23 12 15 0z"/>
<path d="M8840 495 c0 -8 2 -15 4 -15 2 0 6 7 10 15 3 8 1 15 -4 15 -6 0 -10
-7 -10 -15z"/>
<path d="M7695 490 c-3 -6 1 -7 9 -4 18 7 21 14 7 14 -6 0 -13 -4 -16 -10z"/>
<path d="M7945 489 c-11 -17 1 -21 15 -4 8 9 8 15 2 15 -6 0 -14 -5 -17 -11z"/>
<path d="M9386 484 c-6 -15 -4 -15 11 -3 10 7 20 15 22 16 2 2 -3 3 -11 3 -9
0 -19 -7 -22 -16z"/>
<path d="M9771 428 c0 -9 -4 -25 -7 -35 -5 -17 -5 -17 6 0 6 10 9 25 7 35 -4
15 -5 15 -6 0z"/>
<path d="M8492 400 c0 -19 2 -27 5 -17 2 9 2 25 0 35 -3 9 -5 1 -5 -18z"/>
<path d="M8622 410 c0 -14 2 -19 5 -12 2 6 2 18 0 25 -3 6 -5 1 -5 -13z"/>
<path d="M9630 375 c0 -8 2 -15 4 -15 2 0 6 7 10 15 3 8 1 15 -4 15 -6 0 -10
-7 -10 -15z"/>
<path d="M8336 293 c-6 -14 -5 -15 5 -6 7 7 10 15 7 18 -3 3 -9 -2 -12 -12z"/>
</g>
</svg>
